<mxfile host="app.diagrams.net" modified="2024-01-08T10:03:19.244Z" agent="Mozilla/5.0 (Windows NT 10.0; Win64; x64) AppleWebKit/537.36 (KHTML, like Gecko) Chrome/119.0.0.0 Safari/537.36 OPR/105.0.0.0" etag="OhR87ZiwZOCfk2a2zXwN" version="22.1.17" type="github">
  <diagram name="Page-1" id="X2grL4AvARW4OYlTHDZM">
    <mxGraphModel dx="1009" dy="542" grid="1" gridSize="10" guides="1" tooltips="1" connect="1" arrows="1" fold="1" page="1" pageScale="1" pageWidth="850" pageHeight="1100" math="0" shadow="0">
      <root>
        <mxCell id="0" />
        <mxCell id="1" parent="0" />
        <mxCell id="ByRnFCVuW1R6GcT_QFQW-7" value="" style="ellipse;whiteSpace=wrap;html=1;aspect=fixed;" vertex="1" parent="1">
          <mxGeometry x="140" y="80" width="200" height="200" as="geometry" />
        </mxCell>
        <mxCell id="ByRnFCVuW1R6GcT_QFQW-8" value="&lt;b&gt;&lt;font style=&quot;font-size: 21px;&quot;&gt;app&lt;/font&gt;&lt;/b&gt;" style="text;html=1;strokeColor=none;fillColor=none;align=center;verticalAlign=middle;whiteSpace=wrap;rounded=0;" vertex="1" parent="1">
          <mxGeometry x="210" y="100" width="60" height="30" as="geometry" />
        </mxCell>
        <mxCell id="ByRnFCVuW1R6GcT_QFQW-9" value="&lt;b&gt;&lt;font style=&quot;font-size: 14px;&quot;&gt;lib&lt;/font&gt;&lt;/b&gt;" style="ellipse;whiteSpace=wrap;html=1;" vertex="1" parent="1">
          <mxGeometry x="160" y="160" width="70" height="70" as="geometry" />
        </mxCell>
        <mxCell id="ByRnFCVuW1R6GcT_QFQW-10" value="&lt;b&gt;&lt;font style=&quot;font-size: 14px;&quot;&gt;ui&lt;/font&gt;&lt;/b&gt;" style="ellipse;whiteSpace=wrap;html=1;" vertex="1" parent="1">
          <mxGeometry x="250" y="160" width="70" height="70" as="geometry" />
        </mxCell>
        <mxCell id="ByRnFCVuW1R6GcT_QFQW-11" value="" style="endArrow=classic;html=1;rounded=0;entryX=0.5;entryY=1;entryDx=0;entryDy=0;" edge="1" parent="1" target="ByRnFCVuW1R6GcT_QFQW-9">
          <mxGeometry width="50" height="50" relative="1" as="geometry">
            <mxPoint x="210" y="350" as="sourcePoint" />
            <mxPoint x="580" y="250" as="targetPoint" />
          </mxGeometry>
        </mxCell>
        <mxCell id="ByRnFCVuW1R6GcT_QFQW-13" value="" style="rounded=0;whiteSpace=wrap;html=1;" vertex="1" parent="1">
          <mxGeometry x="150" y="350" width="130" height="80" as="geometry" />
        </mxCell>
        <mxCell id="ByRnFCVuW1R6GcT_QFQW-12" value="&lt;b&gt;Utility functions (reusable functions for data fetching,filtering,etc)&lt;/b&gt;" style="text;html=1;strokeColor=none;fillColor=none;align=center;verticalAlign=middle;whiteSpace=wrap;rounded=0;" vertex="1" parent="1">
          <mxGeometry x="150" y="360" width="130" height="60" as="geometry" />
        </mxCell>
        <mxCell id="ByRnFCVuW1R6GcT_QFQW-15" value="" style="endArrow=classic;html=1;rounded=0;entryX=0.5;entryY=1;entryDx=0;entryDy=0;" edge="1" parent="1">
          <mxGeometry width="50" height="50" relative="1" as="geometry">
            <mxPoint x="350" y="300" as="sourcePoint" />
            <mxPoint x="300" y="220" as="targetPoint" />
          </mxGeometry>
        </mxCell>
        <mxCell id="ByRnFCVuW1R6GcT_QFQW-17" value="" style="rounded=0;whiteSpace=wrap;html=1;" vertex="1" parent="1">
          <mxGeometry x="315" y="300" width="115" height="40" as="geometry" />
        </mxCell>
        <mxCell id="ByRnFCVuW1R6GcT_QFQW-16" value="&lt;b&gt;Components&lt;/b&gt;" style="text;html=1;strokeColor=none;fillColor=none;align=center;verticalAlign=middle;whiteSpace=wrap;rounded=0;" vertex="1" parent="1">
          <mxGeometry x="310" y="290" width="130" height="60" as="geometry" />
        </mxCell>
        <mxCell id="ByRnFCVuW1R6GcT_QFQW-18" value="" style="ellipse;whiteSpace=wrap;html=1;aspect=fixed;" vertex="1" parent="1">
          <mxGeometry x="410" y="80" width="190" height="190" as="geometry" />
        </mxCell>
        <mxCell id="ByRnFCVuW1R6GcT_QFQW-19" value="&lt;font style=&quot;font-size: 25px;&quot;&gt;&lt;b&gt;public&lt;/b&gt;&lt;/font&gt;" style="text;html=1;strokeColor=none;fillColor=none;align=center;verticalAlign=middle;whiteSpace=wrap;rounded=0;" vertex="1" parent="1">
          <mxGeometry x="460" y="120" width="90" height="50" as="geometry" />
        </mxCell>
        <mxCell id="ByRnFCVuW1R6GcT_QFQW-20" value="static assets (CSS,html ,images)&amp;nbsp;" style="text;html=1;strokeColor=none;fillColor=none;align=center;verticalAlign=middle;whiteSpace=wrap;rounded=0;" vertex="1" parent="1">
          <mxGeometry x="450" y="180" width="130" height="40" as="geometry" />
        </mxCell>
        <mxCell id="ByRnFCVuW1R6GcT_QFQW-21" value="" style="ellipse;whiteSpace=wrap;html=1;aspect=fixed;" vertex="1" parent="1">
          <mxGeometry x="630" y="80" width="190" height="190" as="geometry" />
        </mxCell>
        <mxCell id="ByRnFCVuW1R6GcT_QFQW-22" value="&lt;font style=&quot;font-size: 25px;&quot;&gt;&lt;b&gt;scripts&lt;/b&gt;&lt;/font&gt;" style="text;html=1;strokeColor=none;fillColor=none;align=center;verticalAlign=middle;whiteSpace=wrap;rounded=0;" vertex="1" parent="1">
          <mxGeometry x="680" y="120" width="90" height="50" as="geometry" />
        </mxCell>
        <mxCell id="ByRnFCVuW1R6GcT_QFQW-24" value="" style="ellipse;whiteSpace=wrap;html=1;" vertex="1" parent="1">
          <mxGeometry x="685" y="170" width="75" height="75" as="geometry" />
        </mxCell>
        <mxCell id="ByRnFCVuW1R6GcT_QFQW-23" value="&lt;font style=&quot;font-size: 15px;&quot;&gt;seed.js&amp;nbsp;&lt;/font&gt;" style="text;html=1;strokeColor=none;fillColor=none;align=center;verticalAlign=middle;whiteSpace=wrap;rounded=0;" vertex="1" parent="1">
          <mxGeometry x="660" y="190" width="130" height="40" as="geometry" />
        </mxCell>
        <mxCell id="ByRnFCVuW1R6GcT_QFQW-26" value="" style="endArrow=classic;html=1;rounded=0;" edge="1" parent="1">
          <mxGeometry width="50" height="50" relative="1" as="geometry">
            <mxPoint x="647" y="283" as="sourcePoint" />
            <mxPoint x="697" y="233" as="targetPoint" />
          </mxGeometry>
        </mxCell>
        <mxCell id="ByRnFCVuW1R6GcT_QFQW-28" value="" style="rounded=0;whiteSpace=wrap;html=1;" vertex="1" parent="1">
          <mxGeometry x="570" y="280" width="130" height="60" as="geometry" />
        </mxCell>
        <mxCell id="ByRnFCVuW1R6GcT_QFQW-27" value="Script that will be used to populate the database with data" style="text;html=1;strokeColor=none;fillColor=none;align=center;verticalAlign=middle;whiteSpace=wrap;rounded=0;" vertex="1" parent="1">
          <mxGeometry x="569" y="264" width="130" height="90" as="geometry" />
        </mxCell>
        <mxCell id="ByRnFCVuW1R6GcT_QFQW-29" value="Text" style="text;html=1;strokeColor=none;fillColor=none;align=center;verticalAlign=middle;whiteSpace=wrap;rounded=0;" vertex="1" parent="1">
          <mxGeometry x="520" y="260" width="60" height="30" as="geometry" />
        </mxCell>
        <mxCell id="ByRnFCVuW1R6GcT_QFQW-30" value="&lt;font style=&quot;font-size: 19px;&quot;&gt;Utils folder will also have placeholder data which will be basically used to mimick the database entries (dummy data)&lt;/font&gt;" style="text;html=1;strokeColor=none;fillColor=none;align=center;verticalAlign=middle;whiteSpace=wrap;rounded=0;" vertex="1" parent="1">
          <mxGeometry x="145" y="460" width="375" height="60" as="geometry" />
        </mxCell>
      </root>
    </mxGraphModel>
  </diagram>
</mxfile>
